<svg width="1440" height="645" viewBox="0 0 1440 645" fill="none" xmlns="http://www.w3.org/2000/svg">
<path d="M-435.605 -258.54C-297.132 -150.668 6.64748 79.1128 137.543 153.318C193.445 185.038 230.217 194.728 256.098 192.078C270.031 190.908 283.162 185.072 293.366 175.514C295.982 173.105 298.457 170.547 300.779 167.853L312.622 154.064C324.423 140.357 335.935 126.899 347.116 113.855L357.054 102.261C356.759 102.626 356.441 102.972 356.102 103.296L355.232 104.207C354.238 105.284 353.244 106.319 352.168 107.313C351.674 107.828 351.148 108.312 350.594 108.762C347.167 111.925 343.404 114.702 339.372 117.044L338.792 117.334C337.613 118.034 336.397 118.67 335.148 119.239C334.678 119.498 334.194 119.733 333.699 119.942C333.148 120.212 332.581 120.447 332.001 120.646C331.829 120.771 331.631 120.856 331.422 120.895C330.718 121.226 329.972 121.475 329.268 121.764L326.618 122.593L324.216 123.297C323.43 123.545 322.643 123.711 321.856 123.876C321.069 124.042 319.951 124.29 318.999 124.456L317.218 124.746C316.031 124.939 314.789 125.105 313.491 125.243C311.462 125.45 309.35 125.574 307.197 125.657H304.588H301.483C300.406 125.657 299.329 125.657 298.253 125.45L293.201 124.994L287.983 124.249L283.304 123.379C277.226 122.192 271.225 120.643 265.332 118.742C263.966 118.327 262.599 117.913 261.191 117.416L259.121 116.713C256.512 115.843 253.779 114.849 251.046 113.814L248.271 112.654C246.201 111.868 244.131 111.039 241.936 110.128H241.729C237.588 108.472 233.695 106.65 229.306 104.662L225.165 102.758L223.384 101.847L221.19 100.77C218.457 99.4448 215.641 98.0369 212.908 96.6289C207.193 93.6475 201.23 90.4037 195.019 86.8977L194.149 86.4422L187.358 82.3013C185.164 81.059 182.886 79.6925 180.567 78.1603L179.863 77.7462C-2.33836 -30.6222 -432.582 -364.631 -432.997 -368.606L-435.605 -258.54Z" fill="#FA3B71"/>
<path d="M80.067 220.36C76.4644 218.331 72.7376 216.219 68.8451 213.859C61.1429 209.304 52.9024 204.293 44.2064 198.91C18.2013 182.636 -11.7792 162.801 -44.2027 140.523C-157.665 62.6732 -300.941 -44.246 -408.606 -126.361L-438.089 -148.97L-435.563 -258.498C-297.132 -150.668 6.64809 79.1541 137.543 153.318C193.405 184.997 230.259 194.728 256.14 192.078C264.836 191.231 273.272 188.639 280.942 184.455C288.612 180.271 295.36 174.582 300.779 167.729L243.344 234.729C237.909 241.599 231.143 247.301 223.451 251.492C215.759 255.683 207.3 258.277 198.581 259.12C172.783 261.77 135.97 252.08 80.067 220.36Z" fill="#FF933B"/>
<path d="M22.6319 287.319C-79.8564 229.346 -288.394 75.5929 -440.533 -40.105L-438.296 -138.452V-149.053L-408.606 -126.361C-301.19 -44.246 -157.872 62.6732 -44.203 140.523C-11.7794 162.801 18.2011 182.636 44.2062 198.91C52.9022 204.293 61.1427 209.304 68.8448 213.859C72.7373 216.137 76.4641 218.331 80.0668 220.36C135.969 252.08 172.782 261.77 198.663 259.12C207.362 258.277 215.801 255.69 223.478 251.514C231.155 247.337 237.911 241.657 243.344 234.812L200.775 284.503L185.909 301.813C180.477 308.652 173.726 314.331 166.059 318.513C158.391 322.696 149.961 325.297 141.27 326.161C115.348 328.77 78.4932 318.956 22.6319 287.319Z" fill="#FEF35D"/>
<path d="M-34.8025 354.32C-125.406 302.889 -298.871 176.922 -443.017 68.5947L-441.733 11.5325L-440.532 -39.9808C-288.394 75.7171 -79.856 229.18 22.6323 287.444C78.535 319.163 115.348 328.853 141.27 326.244C149.962 325.379 158.391 322.779 166.059 318.596C173.727 314.414 180.477 308.735 185.91 301.895L128.475 368.647C123.049 375.504 116.295 381.194 108.617 385.378C100.94 389.562 92.4967 392.153 83.794 392.996C57.7889 395.729 21.1002 385.998 -34.8025 354.32Z" fill="#45C7C7"/>
<path d="M-92.2379 421.279C-171.578 376.267 -314.441 274.11 -445.46 176.591L-443.017 68.4705C-298.871 176.922 -125.407 302.889 -34.803 354.196C21.0998 385.874 57.9127 395.605 83.7936 392.955C92.4931 392.117 100.934 389.532 108.612 385.355C116.289 381.179 123.045 375.496 128.474 368.647L92.0754 411.133C84.953 419.415 77.9549 427.697 71.0395 435.648C65.5957 442.485 58.8372 448.162 51.1632 452.344C43.4891 456.526 35.055 459.128 26.3587 459.997C0.477815 462.73 -36.3352 452.998 -92.2379 421.279Z" fill="#4488C7"/>
<path d="M-149.589 488.155C-217.956 449.396 -333.447 368.068 -447.944 284.089L-445.46 176.425C-314.441 273.944 -171.578 376.101 -92.2374 421.113C-36.3347 452.833 0.478334 462.523 26.3592 459.914C35.0555 459.045 43.4896 456.443 51.1637 452.261C58.8377 448.079 65.5962 442.402 71.04 435.565L16.3795 499.625L13.8536 502.607C12.4871 504.18 11.0792 505.713 9.71268 507.162C6.8575 510.208 3.72437 512.98 0.354111 515.444C-8.76407 522.073 -19.5144 526.095 -30.7444 527.08C-39.5508 527.877 -48.4247 527.473 -57.1222 525.879C-59.6482 525.465 -62.2156 524.968 -64.9072 524.347C-69.338 523.353 -73.9344 522.111 -78.8207 520.579C-82.2991 519.502 -85.9846 518.218 -89.7114 516.852C-110.414 508.922 -130.44 499.325 -149.589 488.155Z" fill="#B634D4"/>
<path style="mix-blend-mode:multiply" opacity="0.4" d="M-447.903 284.089C-440.82 290.076 -433.365 295.608 -425.583 300.653C-353.779 350.345 -132.487 496.478 -115.799 505.878C-115.588 506.042 -115.35 506.168 -115.095 506.251L-113.936 506.789C-109.795 508.653 -106.068 510.392 -102.258 511.966C-96.0056 514.616 -90.0426 516.893 -84.4109 518.84C-77.8136 521.104 -71.0948 522.998 -64.286 524.513C-62.9609 524.844 -61.6772 525.092 -60.3935 525.299L-57.3706 525.879C-55.2173 526.252 -53.2296 526.542 -51.1177 526.79L-48.0535 527.08L-45.1134 527.328C-43.1258 527.328 -41.2623 527.328 -39.3989 527.328C-38.6127 527.37 -37.8248 527.37 -37.0385 527.328C-34.9681 527.328 -32.8976 527.328 -30.9928 526.956C-29.088 526.583 -28.0941 526.624 -26.8519 526.376L-25.6096 526.128C-24.4916 526.128 -23.3735 525.713 -22.3383 525.465C-21.303 525.217 -19.3981 524.72 -17.9902 524.306C-16.5823 523.891 -15.547 523.477 -14.3876 523.022C-13.9902 522.899 -13.6026 522.747 -13.2281 522.566C-12.4828 522.318 -11.7374 521.987 -10.992 521.655L-10.3709 521.324C-10.1617 521.285 -9.96386 521.2 -9.7912 521.076C-8.96987 520.703 -8.16816 520.288 -7.38938 519.833L-6.02293 519.171L-5.31891 518.715C-4.82149 518.45 -4.33787 518.16 -3.86968 517.846C-0.789748 515.929 2.13209 513.768 4.86777 511.386C5.98583 510.433 7.02102 509.44 8.05625 508.404C9.09149 507.369 10.3752 506.127 11.4519 504.926L13.5223 502.607C23.9575 490.391 34.8068 477.761 45.946 464.8L53.8138 455.607L70.833 435.772L74.6012 431.341L75.8021 429.975L88.5149 415.067C93.1527 409.712 97.7905 404.315 102.428 398.876L126.197 371.132C126.529 370.801 126.777 370.47 127.067 370.138C146.405 347.653 165.992 324.588 185.62 301.896L188.022 299.121C192.784 293.531 197.629 287.94 202.391 282.309L221.936 259.575L243.138 234.729L300.78 167.812L312.623 154.022C324.424 140.316 335.936 126.858 347.117 113.814L355.937 103.254C356.277 102.93 356.595 102.585 356.889 102.219L357.966 100.936C357.014 102.012 356.061 103.13 355.067 104.165C354.074 105.201 353.08 106.236 352.003 107.271C351.591 107.703 351.148 108.104 350.678 108.472C349.001 110.024 347.245 111.489 345.419 112.861L343.473 114.269L340.367 116.298C339.787 116.671 339.249 117.044 338.628 117.375C337.448 118.075 336.232 118.711 334.984 119.28C333.966 119.816 332.915 120.286 331.837 120.688C331.664 120.812 331.466 120.897 331.257 120.936C330.553 121.267 329.808 121.516 329.104 121.806L326.453 122.634C325.666 122.912 324.864 123.147 324.052 123.338C323.278 123.58 322.489 123.773 321.691 123.918C320.739 124.166 319.787 124.332 318.834 124.497L317.053 124.787C315.866 124.981 314.624 125.146 313.327 125.284C311.298 125.491 309.186 125.616 307.032 125.698H304.424C303.43 125.698 302.395 125.698 301.318 125.698C298.668 125.698 295.893 125.367 293.036 125.036C291.338 125.036 289.599 124.58 287.818 124.29C286.038 124.001 284.713 123.752 283.139 123.421C277.062 122.233 271.061 120.684 265.167 118.783L261.026 117.458L258.956 116.754C257.051 116.133 255.064 115.387 253.076 114.642L248.107 112.696C242.144 110.377 235.891 107.644 229.307 104.414L225.166 102.509L221.025 100.521C218.292 99.1963 215.476 97.7884 212.743 96.3805C207.029 93.399 201.066 90.1552 194.854 86.6492L193.985 86.1937L187.193 82.0528C184.999 80.8105 182.721 79.444 180.402 77.9119L179.698 77.4978C-2.5031 -30.8707 -432.747 -364.879 -433.161 -368.854L-435.687 -258.705L-438.047 -148.97L-440.532 -39.9808L-443.017 68.5947L-445.46 176.673L-447.903 284.089Z" fill="url(#paint0_linear_267_527)"/>
<mask id="mask0_267_527" style="mask-type:luminance" maskUnits="userSpaceOnUse" x="46" y="43" width="826" height="482">
<path d="M46.6495 463.102C50.5821 458.429 55.0742 454.257 60.0248 450.68C64.7265 447.728 70.0947 446.005 75.6361 445.669C105.575 442.605 161.437 459.375 224.379 478.3C304.423 502.276 399.127 530.724 465.299 523.85C487.37 521.614 506.211 515.568 520.332 503.932C522.706 501.984 524.908 499.837 526.916 497.514L871.401 95.8421C869.405 98.1762 867.201 100.324 864.817 102.261C850.696 113.814 831.69 119.942 809.784 122.22C743.529 128.97 648.908 100.563 568.864 76.6695C505.922 57.7868 450.06 41.016 420.163 44.0803C414.602 44.3822 409.212 46.1075 404.51 49.0909C399.549 52.6556 395.055 56.8292 391.135 61.5137C287.818 181.974 150.007 342.642 46.6495 463.102Z" fill="white"/>
</mask>
<g mask="url(#mask0_267_527)">
<path d="M814.049 162.801C812.053 165.135 809.849 167.283 807.465 169.22C793.344 180.773 774.337 186.901 752.432 189.179C686.177 195.929 591.556 167.522 511.512 143.629C448.569 124.746 392.708 107.975 362.769 111.039C357.222 111.348 351.848 113.073 347.158 116.05C342.197 119.615 337.703 123.788 333.782 128.473L391.134 61.4722C395.055 56.7877 399.549 52.6141 404.51 49.0494C409.212 46.066 414.602 44.3407 420.162 44.0389C450.06 40.9746 505.921 57.7454 568.864 76.6281C648.908 100.646 743.611 129.052 809.784 122.178C831.855 119.901 850.696 113.897 864.817 102.219C867.201 100.283 869.405 98.1347 871.401 95.8007L814.049 162.677" fill="#FA3B71"/>
<path d="M756.614 229.802C754.606 232.125 752.404 234.272 750.03 236.22C735.909 247.732 716.902 253.902 694.997 256.138C628.742 262.929 534.08 234.481 454.035 210.588C391.093 191.663 335.232 174.893 305.334 177.957C299.775 178.266 294.387 179.991 289.681 182.967C284.752 186.556 280.275 190.727 276.347 195.39L333.782 128.473C337.703 123.788 342.197 119.615 347.157 116.05C351.848 113.073 357.222 111.348 362.769 111.039C392.708 107.975 448.569 124.746 511.512 143.629C591.556 167.646 686.259 196.053 752.432 189.179C774.503 186.901 793.344 180.897 807.465 169.22C809.849 167.283 812.053 165.135 814.049 162.801L756.614 229.802Z" fill="#FF933B"/>
<path d="M699.179 296.761C697.172 299.084 694.969 301.231 692.595 303.179C678.475 314.691 659.468 320.861 637.562 323.097C571.307 329.888 476.645 301.44 396.601 277.547C333.658 258.623 277.797 241.852 247.899 244.916C242.344 245.245 236.96 246.968 232.247 249.927C227.317 253.515 222.84 257.686 218.913 262.349L276.348 195.39C280.275 190.727 284.752 186.556 289.681 182.968C294.387 179.991 299.775 178.266 305.334 177.957C335.232 174.893 391.093 191.664 454.036 210.588C534.08 234.564 628.825 263.012 694.997 256.138C717.027 253.902 735.91 247.856 750.03 236.22C752.404 234.272 754.607 232.125 756.614 229.802L699.179 296.761Z" fill="#FEF35D"/>
<path d="M641.662 363.72C639.691 366.063 637.5 368.212 635.119 370.138C620.999 381.691 601.992 387.82 580.086 390.097C513.831 396.847 419.169 368.44 339.124 344.547C276.182 325.664 220.321 308.894 190.423 311.958C184.864 312.267 179.476 313.992 174.77 316.968C169.831 320.545 165.353 324.717 161.437 329.391L218.871 262.391C222.799 257.727 227.276 253.556 232.205 249.968C236.919 247.009 242.302 245.286 247.858 244.957C277.756 241.893 333.617 258.664 396.559 277.588C476.645 301.44 571.266 329.888 637.521 323.097C659.551 320.861 678.433 314.815 692.554 303.179C694.928 301.231 697.13 299.084 699.138 296.761L641.662 363.72Z" fill="#45C7C7"/>
<path d="M584.268 430.762C582.26 433.085 580.058 435.232 577.684 437.18C563.563 448.692 544.556 454.862 522.651 457.098C456.396 463.889 361.775 435.441 281.731 411.548C218.788 392.623 162.927 375.853 133.03 378.917C127.474 379.246 122.091 380.969 117.377 383.927C112.426 387.505 107.934 391.677 104.002 396.35L161.312 329.267C165.229 324.593 169.707 320.421 174.646 316.844C179.351 313.868 184.739 312.143 190.299 311.834C220.196 308.769 276.058 325.54 339 344.423C419.044 368.44 513.789 396.847 579.961 389.973C601.991 387.696 620.874 381.691 634.995 370.014C637.375 368.088 639.566 365.939 641.537 363.595L584.268 430.762Z" fill="#4488C7"/>
<path d="M526.916 497.596C524.908 499.92 522.706 502.067 520.332 504.015C506.211 515.527 487.204 521.697 465.299 523.933C399.044 530.724 304.423 502.276 224.379 478.382C161.436 459.458 105.575 442.687 75.636 445.752C70.0946 446.087 64.7265 447.81 60.0247 450.762C55.0742 454.34 50.582 458.512 46.6494 463.185C65.7806 440.907 84.898 418.615 104.002 396.309C107.934 391.636 112.426 387.463 117.377 383.886C122.091 380.928 127.474 379.204 133.03 378.876C162.927 375.811 218.788 392.582 281.731 411.506C361.775 435.482 456.479 463.931 522.651 457.057C544.722 454.82 563.563 448.775 577.684 437.139C580.058 435.191 582.26 433.043 584.268 430.72L526.916 497.596Z" fill="#B634D4"/>
</g>
<path style="mix-blend-mode:multiply" opacity="0.4" d="M57.5817 450.39L104.002 396.226L126.487 370.055L139.655 354.693L142.719 351.131C146.115 346.99 149.552 343.181 152.948 339.164L161.312 329.267L210.093 272.578C240.487 237.131 270.964 201.56 300.489 167.191L312.125 153.608L329.559 133.276L330.76 131.868C347.53 112.365 363.887 93.3576 379.374 75.2203L391.135 61.4723C395.055 56.7878 399.549 52.6142 404.51 49.0495C409.212 46.0661 414.602 44.3408 420.163 44.039C450.06 40.9747 505.922 57.7455 568.864 76.6282C648.908 100.646 743.612 129.053 809.784 122.179C831.855 119.901 850.696 113.897 864.817 102.219C867.201 100.283 869.405 98.1348 871.401 95.8008L745.558 242.556L699.179 296.636L667.004 334.153L526.916 497.472C524.908 499.796 522.706 501.943 520.332 503.891C506.211 515.403 487.204 521.573 465.299 523.809C399.044 530.6 304.423 502.151 224.379 478.258C161.437 459.334 105.575 442.563 75.6361 445.628C70.0947 445.963 64.7265 447.686 60.0248 450.638C55.0742 454.215 50.5821 458.388 46.6495 463.061L57.5817 450.39Z" fill="url(#paint1_linear_267_527)"/>
<mask id="mask1_267_527" style="mask-type:luminance" maskUnits="userSpaceOnUse" x="497" y="-358" width="391" height="856">
<path d="M526.916 497.596L871.401 95.925C900.388 62.1763 884.693 -7.06029 866.763 -86.2765C844.568 -184.914 820.095 -293.075 875.625 -357.798L531.14 43.8733C475.61 108.638 500.041 216.799 522.278 315.229C540.208 394.611 555.861 463.889 526.916 497.596Z" fill="white"/>
</mask>
<g mask="url(#mask1_267_527)">
<path d="M818.273 -290.922C762.743 -226.199 787.174 -118.038 809.411 -19.6073C827.341 59.8159 842.994 129.052 814.049 162.801L871.401 95.925C900.388 62.1763 884.693 -7.06029 866.763 -86.2765C844.568 -184.914 820.095 -293.075 875.625 -357.798L818.273 -290.922Z" fill="#FA3B71"/>
<path d="M760.838 -223.963C705.308 -159.199 729.739 -51.0371 751.976 47.3931C769.907 126.775 785.559 196.053 756.614 229.802L814.049 162.801C843.036 129.052 827.341 59.816 809.411 -19.4003C787.174 -117.83 762.743 -225.992 818.273 -290.715L760.838 -223.756" fill="#FF933B"/>
<path d="M703.403 -156.962C647.873 -92.2395 672.305 15.9219 694.541 114.352C712.472 193.775 728.125 263.012 699.179 296.554L756.614 229.595C785.601 195.846 769.907 126.568 751.976 47.3931C729.74 -51.0371 705.308 -159.199 760.838 -223.963L703.403 -156.962Z" fill="#FEF35D"/>
<path d="M645.803 -90.0034C590.273 -25.2391 614.704 82.8809 636.941 181.311C654.871 260.734 670.483 329.971 641.537 363.72L699.014 296.761C728 263.012 712.306 193.775 694.376 114.559C672.139 16.129 647.707 -92.0324 703.237 -156.755L645.803 -90.0034Z" fill="#45C7C7"/>
<path d="M588.492 -23.003C532.962 41.72 557.393 149.881 579.63 248.312C597.561 327.735 613.213 396.971 584.268 430.72L641.662 363.72C670.648 329.971 654.996 260.734 637.065 181.311C614.828 82.8809 590.397 -25.2391 645.927 -90.0034L588.451 -23.003" fill="#4488C7"/>
<path d="M531.14 43.8319C475.61 108.596 500.042 216.758 522.278 315.188C540.209 394.611 555.861 463.848 526.916 497.389L584.268 430.762C613.255 397.013 597.561 327.776 579.63 248.353C557.393 149.923 532.962 41.7614 588.492 -22.9615L531.14 43.8733" fill="#B634D4"/>
</g>
<g style="mix-blend-mode:multiply" opacity="0.3">
<path d="M531.14 43.8319L588.492 -23.003L610.646 -48.8424L672.429 -120.853L703.403 -156.962L760.838 -223.963L805.85 -276.429L818.273 -290.922L875.625 -357.798C820.095 -293.075 844.527 -184.914 866.764 -86.4836C884.694 -7.06033 900.347 62.1762 871.401 95.7179L745.558 242.473L699.18 296.554L667.004 334.07L526.916 497.389C555.903 463.641 540.209 394.404 522.279 315.188C500.042 216.758 475.61 108.596 531.14 43.8319Z" fill="#1A3221"/>
</g>
<path d="M818.273 -290.922C837.818 -313.697 867.302 -331.13 910.243 -340.862C917.321 -342.418 924.483 -343.566 931.693 -344.299C1076.63 -359.165 1337.51 -231.044 1535.61 -117.624C1623.06 -67.6423 1753.75 20.8082 1881.54 110.957L1883.94 5.61096C1883.94 5.61096 1883.94 5.61096 1883.57 5.32109C1774.29 -70.5824 1667.66 -141.682 1592.96 -184.5C1589.69 -186.405 1586.33 -188.227 1583.02 -190.131L1573 -195.846C1551.43 -208.269 1529.23 -220.36 1506.75 -232.535C1501.22 -235.599 1495.57 -238.636 1489.77 -241.645L1469.85 -252.08L1467.45 -253.322L1461.94 -256.221L1449.77 -262.515L1447.16 -263.84L1443.02 -265.911C1438.34 -268.312 1433.66 -270.756 1428.94 -273.116L1424.8 -275.269C1414.72 -280.349 1404.62 -285.359 1394.48 -290.301C1389.14 -292.91 1383.8 -295.518 1378.42 -298.044C1373.03 -300.57 1367.69 -303.179 1362.35 -305.664C1359.37 -307.072 1356.35 -308.521 1353.32 -309.805L1344.34 -313.946L1342.89 -314.65L1333.12 -319.039L1320.69 -324.671L1312.62 -328.273L1312 -328.522C1306.9 -330.758 1301.85 -332.994 1296.76 -335.147L1286.57 -339.288C1281.31 -341.524 1276.05 -343.719 1270.84 -345.831C1265.62 -347.943 1259.95 -350.262 1254.52 -352.415L1237.96 -358.999C1233.82 -360.573 1229.68 -362.146 1225.53 -363.637C1220.57 -365.459 1215.64 -367.322 1210.75 -369.02C1205.86 -370.718 1200.94 -372.581 1196.09 -374.196C1195.84 -374.196 1195.55 -374.196 1195.35 -374.486L1186.82 -377.343L1180.11 -379.58C1175.43 -381.112 1170.79 -382.602 1166.11 -384.052C1161.43 -385.501 1157.83 -386.619 1153.69 -387.82C1149.55 -389.021 1144.99 -390.346 1140.73 -391.547C1132.45 -393.866 1124.5 -395.978 1116.54 -397.924C1116.15 -397.976 1115.76 -398.074 1115.39 -398.214L1104.58 -400.698L1102.96 -401.071C1099.57 -401.816 1096.17 -402.562 1092.82 -403.224L1090.79 -403.638C1084.74 -404.881 1078.82 -405.957 1072.94 -406.91L1067.1 -407.862C1063.5 -408.4 1059.9 -408.939 1056.29 -409.353C1054.18 -409.643 1052.15 -409.933 1050.04 -410.14C1047.93 -410.347 1047.1 -410.43 1045.65 -410.637L1033.48 -411.63L1028.14 -411.962H1024.41C1023.58 -411.962 1022.75 -411.962 1021.88 -411.962H1016.87C1007.46 -412.13 998.042 -411.743 988.673 -410.802C981.459 -410.076 974.296 -408.915 967.222 -407.324C964.572 -406.744 961.922 -406.082 959.355 -405.419C956.787 -404.756 954.22 -404.094 951.735 -403.349C949.251 -402.603 946.104 -401.651 943.453 -400.698C942.004 -400.243 940.596 -399.746 939.313 -399.208C936.869 -398.379 934.509 -397.468 932.149 -396.516L929.457 -395.398C928.807 -395.157 928.172 -394.88 927.552 -394.57C925.109 -393.534 922.707 -392.416 920.43 -391.298C916.289 -389.394 912.769 -387.364 909.208 -385.253C908.999 -385.19 908.803 -385.092 908.628 -384.963L905.274 -382.892C902.914 -381.402 900.636 -379.869 898.441 -378.337C897.365 -377.55 896.288 -376.764 895.253 -375.935C893.141 -374.321 891.112 -372.623 889.083 -370.925C888.213 -370.221 887.344 -369.476 886.516 -368.689C886.117 -368.388 885.755 -368.04 885.439 -367.654C883.782 -366.163 882.168 -364.631 880.677 -363.057C879.766 -362.146 878.896 -361.194 878.068 -360.283C877.24 -359.372 876.37 -358.419 875.583 -357.508L840.096 -316.099L818.273 -290.922Z" fill="#FA3B71"/>
<path d="M874.259 -277.34C867.046 -276.627 859.883 -275.479 852.808 -273.903C809.867 -264.213 780.383 -246.779 760.838 -224.211L761.459 -224.957L803.448 -273.654L804.028 -274.317L818.273 -290.881C837.818 -313.697 867.302 -331.089 910.243 -340.82C917.321 -342.377 924.483 -343.525 931.693 -344.257C1076.63 -359.082 1337.51 -231.002 1535.61 -117.582C1623.07 -67.6423 1753.75 21.0153 1881.54 110.998L1879.14 216.923C1734.87 114.394 1578.05 6.56345 1478.13 -50.623C1280.07 -164.043 1019.32 -292.164 874.259 -277.34Z" fill="#FF933B"/>
<path d="M816.823 -210.339C809.611 -209.627 802.447 -208.479 795.373 -206.902C752.432 -197.212 722.948 -179.779 703.403 -156.962L757.981 -220.609L760.838 -223.963C780.383 -246.738 809.867 -264.171 852.808 -273.654C859.882 -275.231 867.045 -276.379 874.258 -277.091C1019.19 -291.957 1280.07 -163.836 1478.17 -50.4159C1578.05 6.56346 1734.87 114.394 1879.14 216.923L1876.74 323.097C1719.05 209.884 1533.54 80.8106 1420.74 16.2118C1222.64 -97.0844 961.881 -225.205 816.823 -210.339Z" fill="#FEF35D"/>
<path d="M759.347 -143.38C752.146 -142.658 744.997 -141.496 737.938 -139.902C694.955 -130.212 665.513 -112.779 645.968 -90.2104L703.403 -156.962C722.948 -179.779 752.431 -197.212 795.373 -206.902C802.447 -208.479 809.61 -209.627 816.823 -210.339C961.756 -225.205 1222.64 -97.0844 1420.74 16.336C1533.54 80.9347 1718.89 210.008 1876.74 323.221L1874.3 429.851C1706.84 308.687 1489.52 155.596 1363.3 83.295C1165.2 -30.1254 904.445 -158.205 759.347 -143.38Z" fill="#45C7C7"/>
<path d="M701.912 -76.3797C694.713 -75.6706 687.563 -74.5228 680.504 -72.9427C637.521 -63.2529 608.079 -45.8195 588.492 -23.2514L598.223 -34.5562L645.803 -90.0034C665.348 -112.779 694.79 -130.212 737.773 -139.695C744.832 -141.289 751.981 -142.451 759.182 -143.173C904.115 -157.998 1164.99 -29.9183 1363.14 83.5021C1489.35 155.803 1706.84 308.894 1874.13 430.058L1871.69 536.977C1699.88 411.755 1446.29 231.003 1305.66 150.503C1107.77 36.8751 846.969 -91.2457 701.912 -76.3797Z" fill="#4488C7"/>
<path d="M571.555 12.2779C567 14.6796 562.652 17.247 558.594 19.8972C548.38 26.5518 539.152 34.6088 531.181 43.8319L573.915 -5.85946L588.491 -22.8787C608.078 -45.6539 637.52 -63.0873 680.503 -72.5701C687.563 -74.1502 694.712 -75.2979 701.912 -76.007C846.845 -90.873 1107.72 37.2478 1305.83 150.668C1446.62 231.168 1700.04 411.92 1871.85 537.142L1869.45 644.186C1867.5 642.819 1474.32 346.907 1248.31 217.669C1242.15 214.107 1235.9 210.546 1229.55 206.985L1220.07 201.643L1200.81 190.877C1178.2 178.454 1155.01 165.741 1131.45 153.36C1124.74 149.799 1117.99 146.265 1111.2 142.759L1101.02 137.5C1084 128.804 1066.85 120.191 1049.71 111.826C1042.84 108.458 1035.93 105.145 1029 101.888C1020.28 97.747 1011.54 93.606 1002.79 89.4651C992.689 84.7858 982.585 80.1893 972.522 75.7585C962.46 71.3277 951.818 66.7313 941.672 62.4247C929.774 57.428 917.959 52.5969 906.226 47.9314C886.101 40.0222 866.307 32.6927 846.928 26.1086L837.279 22.8787C824.442 18.7378 811.813 14.5968 799.431 11.284C793.261 9.50344 787.008 7.84706 781.045 6.2735C729.532 -6.97751 682.822 -13.1061 644.394 -9.1722C640.667 -8.79951 637.023 -8.30261 633.421 -7.76429C629.818 -7.22597 626.381 -6.52202 622.944 -5.73524C605.105 -1.9868 587.83 4.06849 571.555 12.2779Z" fill="#B634D4"/>
<path style="mix-blend-mode:multiply" opacity="0.4" d="M531.14 43.8318C532.092 42.6723 533.086 41.5957 534.08 40.5191C535.074 39.4424 536.109 38.4072 537.144 37.3305C538.179 36.2539 539.215 35.26 540.333 34.2248C541.451 33.1896 541.906 32.7341 542.693 32.0715L545.467 29.6698L548.076 27.4751L550.022 25.9843C551.099 25.1147 552.3 24.2865 553.46 23.4169C554.619 22.5473 555.199 22.1333 556.11 21.5535C557.932 20.2698 559.795 19.0275 561.741 17.8267C562.777 17.2055 563.812 16.543 564.888 15.9633C565.965 15.3835 567.083 14.6796 568.201 14.0584C569.319 13.4373 570.396 12.8161 571.555 12.2778C573.377 11.284 575.241 10.3316 577.104 9.46199C578.14 8.92366 579.216 8.42674 580.334 7.92983C583.109 6.64613 585.966 5.44527 588.947 4.28581L595.117 1.96686C597.105 1.22149 599.258 0.517552 601.246 -0.144999C601.706 -0.313159 602.176 -0.451503 602.654 -0.559118C604.434 -1.18026 606.257 -1.71856 608.079 -2.21547L608.948 -2.46395C611.143 -3.1265 613.338 -3.70621 615.574 -4.28594C617.81 -4.86567 620.46 -5.48682 622.986 -6.06655L626.796 -6.89475C627.914 -6.89475 629.114 -7.26741 630.233 -7.51587C632.634 -7.92997 635.036 -8.26126 637.479 -8.63394C639.922 -9.00663 642.034 -9.2965 644.395 -9.54496C649.529 -10.0833 654.83 -10.4146 660.296 -10.5802C662.532 -10.5802 664.768 -10.5802 667.046 -10.5802H675.617H678.723C681.539 -10.5802 684.437 -10.5802 687.336 -10.1661C690.235 -9.75201 693.175 -9.75199 696.198 -9.50354L701.084 -9.00661L705.474 -8.55111C707.999 -8.30265 710.525 -7.9714 713.093 -7.64013L717.234 -7.10178C721.085 -6.56346 725.019 -5.94234 728.953 -5.27979L731.479 -4.86567L737.731 -3.74763L742.825 -2.75381C745.185 -2.33972 747.504 -1.88421 749.864 -1.38729L756.987 0.144866C761.79 1.1801 766.594 2.29815 771.48 3.49902C776.366 4.69989 781.253 5.94219 786.222 7.26729C788.748 7.88843 791.232 8.59238 793.717 9.29634L803.117 11.9051C820.178 16.8743 837.666 22.3955 855.583 28.4689C863.533 31.2847 871.525 34.142 879.6 37.1235C884.238 38.8213 888.917 40.6019 893.596 42.3825L895.004 42.9622L910.284 48.9252L927.387 56.0476L944.406 63.17C950.079 65.5718 955.793 68.0563 961.508 70.5409L968.755 73.688L976.043 76.9179C987.775 82.1079 999.536 87.4635 1011.32 92.9847L1026.56 100.149L1039.56 106.36L1043.42 108.223L1044.7 108.803L1057.12 115.015C1061.51 117.113 1065.9 119.266 1070.29 121.474L1075.43 124.042L1090.79 131.785L1098.86 135.926L1103.34 138.204C1112.78 143.049 1122.14 147.977 1131.45 152.863C1138.2 156.383 1144.87 159.944 1151.58 163.505C1180.56 179.116 1209.22 194.935 1236.63 210.505L1248.31 217.172C1253.2 219.946 1258.25 222.886 1263.42 225.909C1422.56 319.577 1703.56 522.152 1866.64 641.95L1868.13 643.068L1869.45 644.02L1871.85 537.018L1874.3 430.058L1876.74 323.097L1879.14 216.799L1881.54 110.956L1883.94 5.61091C1883.94 5.61091 1883.94 5.61091 1883.57 5.32104C1774.29 -70.5824 1667.66 -141.682 1592.96 -184.5C1589.69 -186.405 1586.33 -188.227 1583.02 -190.131L1573 -195.846C1551.43 -208.269 1529.23 -220.36 1506.75 -232.535C1501.22 -235.599 1495.57 -238.636 1489.77 -241.645L1469.85 -252.08L1467.45 -253.322C1453.29 -260.748 1439.03 -268.064 1424.67 -275.269C1414.6 -280.349 1404.49 -285.359 1394.36 -290.301C1389.02 -292.91 1383.68 -295.518 1378.29 -298.044C1372.91 -300.57 1367.57 -303.179 1362.23 -305.664C1359.25 -307.072 1356.22 -308.521 1353.2 -309.805L1344.21 -313.946C1336.32 -317.59 1328.42 -321.165 1320.53 -324.671L1312.45 -328.273L1311.83 -328.522L1303.55 -332.083C1292.49 -336.845 1281.52 -341.524 1270.42 -345.996C1265 -348.233 1259.53 -350.427 1254.11 -352.581L1237.96 -358.999C1233.82 -360.573 1229.68 -362.146 1225.53 -363.637L1210.75 -369.02C1205.82 -370.801 1200.94 -372.581 1196.09 -374.196C1195.84 -374.196 1195.55 -374.196 1195.35 -374.486L1186.82 -377.343L1180.11 -379.58C1175.43 -381.112 1170.79 -382.602 1166.11 -384.052L1153.69 -387.82C1149.34 -389.145 1144.99 -390.346 1140.73 -391.547C1132.45 -393.824 1124.5 -395.978 1116.54 -397.924C1116.15 -397.976 1115.76 -398.074 1115.39 -398.214L1104.58 -400.698L1102.96 -401.071C1099.57 -401.816 1096.17 -402.562 1092.82 -403.224L1090.79 -403.638C1084.74 -404.839 1078.82 -405.957 1072.94 -406.91L1067.1 -407.862C1063.5 -408.4 1059.9 -408.939 1056.29 -409.353C1054.18 -409.643 1052.15 -409.933 1050.04 -410.14C1047.93 -410.347 1047.1 -410.43 1045.65 -410.637L1033.48 -411.63L1028.14 -411.962H1024.41C1023.58 -411.962 1022.75 -411.962 1021.88 -411.962H1016.87C1007.46 -412.13 998.042 -411.743 988.673 -410.802C981.459 -410.076 974.296 -408.915 967.222 -407.324C964.572 -406.744 961.922 -406.082 959.355 -405.419C956.787 -404.756 954.22 -404.094 951.735 -403.349C949.251 -402.603 946.104 -401.651 943.453 -400.698C942.004 -400.243 940.596 -399.746 939.313 -399.208C936.869 -398.379 934.509 -397.468 932.149 -396.516L929.457 -395.398C928.807 -395.157 928.172 -394.88 927.552 -394.57C925.109 -393.534 922.707 -392.416 920.43 -391.298C916.589 -389.475 912.844 -387.457 909.208 -385.253C908.999 -385.19 908.803 -385.092 908.628 -384.963L905.274 -382.892C902.914 -381.402 900.636 -379.869 898.441 -378.337C897.365 -377.55 896.288 -376.764 895.253 -375.935C893.141 -374.321 891.112 -372.623 889.083 -370.925C888.213 -370.221 887.344 -369.476 886.516 -368.689C886.117 -368.388 885.755 -368.04 885.439 -367.654C883.772 -366.206 882.182 -364.672 880.677 -363.057C879.766 -362.146 878.896 -361.194 878.068 -360.283C877.24 -359.372 876.37 -358.419 875.583 -357.508L840.096 -316.099L818.19 -290.549L760.838 -223.921L732.39 -190.794L704.024 -157.666C684.645 -135.057 665.265 -112.447 646.051 -90.2105C629.901 -71.3278 613.917 -52.735 598.347 -34.5976L597.85 -33.9765L588.616 -23.21L577.022 -9.7106L574.081 -6.23219L556.358 14.4725L553.708 17.5782L532.134 42.7137C531.719 43.1692 531.471 43.5005 531.14 43.8318Z" fill="url(#paint2_linear_267_527)"/>
<defs>
<linearGradient id="paint0_linear_267_527" x1="293.705" y1="379.979" x2="-491.353" y2="-45.6041" gradientUnits="userSpaceOnUse">
<stop/>
<stop offset="0.01" stop-color="#0A0A0A"/>
<stop offset="0.15" stop-color="#727272"/>
<stop offset="0.27" stop-color="#BEBEBE"/>
<stop offset="0.35" stop-color="#EDEDED"/>
<stop offset="0.39" stop-color="white"/>
</linearGradient>
<linearGradient id="paint1_linear_267_527" x1="577.568" y1="327.807" x2="102.723" y2="134.575" gradientUnits="userSpaceOnUse">
<stop/>
<stop offset="0.01" stop-color="#0A0A0A"/>
<stop offset="0.15" stop-color="#727272"/>
<stop offset="0.27" stop-color="#BEBEBE"/>
<stop offset="0.35" stop-color="#EDEDED"/>
<stop offset="0.39" stop-color="white"/>
</linearGradient>
<linearGradient id="paint2_linear_267_527" x1="668.436" y1="-255.202" x2="1915.34" y2="317.382" gradientUnits="userSpaceOnUse">
<stop/>
<stop offset="0.05" stop-color="#303030"/>
<stop offset="0.11" stop-color="#666666"/>
<stop offset="0.17" stop-color="#959595"/>
<stop offset="0.24" stop-color="#BBBBBB"/>
<stop offset="0.3" stop-color="#D9D9D9"/>
<stop offset="0.36" stop-color="#EEEEEE"/>
<stop offset="0.42" stop-color="#FBFBFB"/>
<stop offset="0.47" stop-color="white"/>
<stop offset="0.67" stop-color="#FDFDFD"/>
<stop offset="0.74" stop-color="#F6F6F6"/>
<stop offset="0.79" stop-color="#EAEAEA"/>
<stop offset="0.83" stop-color="#D9D9D9"/>
<stop offset="0.86" stop-color="#C3C3C3"/>
<stop offset="0.9" stop-color="#A8A8A8"/>
<stop offset="0.92" stop-color="#878787"/>
<stop offset="0.95" stop-color="#616161"/>
<stop offset="0.98" stop-color="#363636"/>
<stop offset="1"/>
</linearGradient>
</defs>
</svg>
