<svg width="856" height="199" viewBox="0 0 856 199" fill="none" xmlns="http://www.w3.org/2000/svg">
<path d="M129.497 198.42H66.3475L7.8075 139.88C-2.6025 129.47 -2.6025 112.54 7.8075 102.13L12.9575 96.9803L7.8075 91.8303C-2.6025 81.4203 -2.6025 64.4903 7.8075 54.0803L42.3175 19.5703H105.467L28.0575 96.9803L129.497 198.41V198.42ZM70.7675 187.74H103.717L20.5075 104.53L15.3575 109.68C9.11749 115.93 9.11749 126.09 15.3575 132.33L70.7675 187.74ZM46.7475 30.2503L15.3575 61.6303C9.11749 67.8803 9.11749 78.0403 15.3575 84.2803L20.5075 89.4303L79.6975 30.2503H46.7475Z" fill="#FEFDFA"/>
<path d="M120.627 146V51.206H132.476V105.947L179.688 74.9045H197.647L147.473 108.292L199.622 146H181.972L132.476 109.527V146H120.627ZM243.131 147.358C235.19 147.358 228.443 146.946 222.889 146.123C217.334 145.342 212.85 143.717 209.435 141.248C206.02 138.738 203.531 134.994 201.967 130.016C200.404 125.038 199.622 118.393 199.622 110.082C199.622 102.018 200.404 95.5584 201.967 90.7035C203.531 85.8486 206.02 82.1869 209.435 79.7183C212.85 77.2497 217.334 75.604 222.889 74.7811C228.443 73.9582 235.19 73.5468 243.131 73.5468C251.113 73.5468 257.86 73.9582 263.374 74.7811C268.928 75.604 273.413 77.2497 276.827 79.7183C280.242 82.1869 282.731 85.8486 284.295 90.7035C285.858 95.5584 286.64 102.018 286.64 110.082C286.64 118.393 285.858 125.038 284.295 130.016C282.731 134.994 280.242 138.738 276.827 141.248C273.413 143.717 268.928 145.342 263.374 146.123C257.86 146.946 251.113 147.358 243.131 147.358ZM274.791 110.082C274.791 104.198 274.482 99.4876 273.865 95.9493C273.289 92.411 271.993 89.7572 269.977 87.9881C267.961 86.1778 264.814 84.964 260.535 84.3469C256.297 83.7297 250.496 83.4212 243.131 83.4212C235.808 83.4212 230.006 83.7297 225.728 84.3469C221.449 84.964 218.301 86.1778 216.285 87.9881C214.269 89.7572 212.953 92.411 212.335 95.9493C211.759 99.4876 211.471 104.198 211.471 110.082C211.471 116.171 211.759 121.047 212.335 124.708C212.953 128.37 214.269 131.127 216.285 132.978C218.301 134.788 221.449 136.002 225.728 136.619C230.006 137.195 235.808 137.483 243.131 137.483C250.496 137.483 256.297 137.195 260.535 136.619C264.814 136.002 267.961 134.788 269.977 132.978C271.993 131.127 273.289 128.37 273.865 124.708C274.482 121.047 274.791 116.171 274.791 110.082ZM300.711 146V74.9045H312.56V84.3469C314.329 81.9606 316.51 79.9651 319.102 78.3606C321.735 76.756 325.232 75.5628 329.594 74.7811C333.996 73.9582 339.756 73.5468 346.874 73.5468C356.172 73.5468 363.496 74.4519 368.844 76.2622C374.234 78.0726 378.06 81.3023 380.323 85.9515C382.586 90.6007 383.718 97.1836 383.718 105.7V146H371.807V105.7C371.807 100.845 371.395 96.9367 370.572 93.9744C369.749 91.0121 368.33 88.7698 366.314 87.2475C364.339 85.7252 361.603 84.7172 358.106 84.2235C354.609 83.6886 350.165 83.4212 344.775 83.4212C336.547 83.4212 330.087 84.1 325.397 85.4578C320.707 86.8155 317.395 88.9549 315.461 91.8761C313.527 94.7561 312.56 98.5207 312.56 103.17V146H300.711ZM480.733 124.894C480.733 130.201 479.931 134.377 478.326 137.422C476.763 140.466 474.356 142.688 471.106 144.087C467.855 145.486 463.7 146.37 458.639 146.741C453.62 147.152 447.633 147.358 440.68 147.358C432.74 147.358 425.992 146.946 420.438 146.123C414.925 145.342 410.461 143.717 407.046 141.248C403.672 138.738 401.203 134.994 399.64 130.016C398.118 125.038 397.356 118.393 397.356 110.082C397.356 102.018 398.097 95.5584 399.578 90.7035C401.101 85.8486 403.549 82.1869 406.922 79.7183C410.296 77.2497 414.719 75.604 420.191 74.7811C425.704 73.9582 432.431 73.5468 440.372 73.5468C449.464 73.5468 456.994 74.1845 462.959 75.46C468.925 76.7354 473.369 79.1628 476.29 82.7423C479.252 86.3218 480.733 91.5675 480.733 98.4796V113.723H409.267C409.309 118.989 409.679 123.207 410.378 126.375C411.078 129.543 412.477 131.929 414.575 133.534C416.673 135.138 419.8 136.208 423.956 136.743C428.152 137.236 433.727 137.483 440.68 137.483C446.934 137.483 451.974 137.36 455.8 137.113C459.668 136.866 462.589 136.331 464.564 135.508C466.58 134.644 467.938 133.369 468.637 131.682C469.337 129.995 469.686 127.732 469.686 124.894H480.733ZM440.372 83.4212C433.665 83.4212 428.255 83.668 424.141 84.1617C420.068 84.6555 416.961 85.6223 414.822 87.0623C412.682 88.4612 411.222 90.5595 410.44 93.3573C409.699 96.155 409.309 99.8373 409.267 104.404H469.378V98.4796C469.378 95.5173 469.028 93.0693 468.329 91.1355C467.67 89.1606 466.354 87.6178 464.379 86.5069C462.404 85.3549 459.483 84.5526 455.615 84.1C451.789 83.6475 446.708 83.4212 440.372 83.4212ZM537.634 147.358C529.694 147.358 522.946 146.946 517.392 146.123C511.837 145.342 507.353 143.717 503.938 141.248C500.523 138.738 498.034 134.994 496.471 130.016C494.907 125.038 494.125 118.393 494.125 110.082C494.125 102.018 494.907 95.5584 496.471 90.7035C498.034 85.8486 500.523 82.1869 503.938 79.7183C507.353 77.2497 511.837 75.604 517.392 74.7811C522.946 73.9582 529.694 73.5468 537.634 73.5468C547.138 73.5468 554.956 74.1022 561.086 75.2131C567.257 76.2828 571.824 78.5046 574.787 81.8783C577.749 85.252 579.23 90.3949 579.23 97.307H567.875C567.875 93.3161 567.052 90.3332 565.406 88.3584C563.76 86.3835 560.757 85.0669 556.396 84.4086C552.034 83.7503 545.781 83.4212 537.634 83.4212C530.311 83.4212 524.51 83.7297 520.231 84.3469C515.952 84.964 512.804 86.1778 510.788 87.9881C508.772 89.7572 507.456 92.411 506.839 95.9493C506.263 99.4876 505.975 104.198 505.975 110.082C505.975 116.171 506.263 121.047 506.839 124.708C507.456 128.37 508.772 131.127 510.788 132.978C512.804 134.788 515.952 136.002 520.231 136.619C524.51 137.195 530.311 137.483 537.634 137.483C543.847 137.483 548.928 137.319 552.878 136.99C556.828 136.619 559.893 135.92 562.073 134.891C564.254 133.822 565.756 132.299 566.579 130.324C567.443 128.308 567.875 125.634 567.875 122.302H579.23C579.23 127.815 578.407 132.238 576.761 135.57C575.116 138.903 572.606 141.413 569.232 143.099C565.859 144.786 561.538 145.918 556.272 146.494C551.047 147.07 544.834 147.358 537.634 147.358ZM626.01 146C618.769 146 612.967 145.28 608.606 143.84C604.245 142.359 601.077 139.767 599.102 136.064C597.169 132.32 596.202 127.074 596.202 120.327V55.4644H608.051V74.9045H651.807V84.6555H608.051V120.327C608.051 124.935 608.462 128.37 609.285 130.633C610.149 132.896 611.857 134.377 614.408 135.076C617 135.776 620.867 136.126 626.01 136.126C630.577 136.126 634.156 135.982 636.748 135.694C639.381 135.406 641.315 134.644 642.549 133.41C643.784 132.135 644.565 130.057 644.895 127.177C645.224 124.297 645.388 120.244 645.388 115.019H655.88C655.88 121.849 655.448 127.321 654.584 131.435C653.761 135.55 652.259 138.656 650.079 140.754C647.939 142.853 644.915 144.251 641.007 144.951C637.139 145.65 632.14 146 626.01 146ZM673.222 146V78.8543H685.071V146H673.222ZM673.222 63.0553V51.206H685.071V63.0553H673.222ZM712.719 146V83.9149H700.87V74.9045H712.719V71.8188C712.719 65.0713 713.81 59.8872 715.99 56.2666C718.212 52.646 721.647 50.1569 726.297 48.7992C730.987 47.4414 737.014 46.7626 744.379 46.7626H758.141V56.3901H744.317C738.434 56.3901 734.093 56.7604 731.295 57.5009C728.498 58.2415 726.667 59.7227 725.803 61.9444C724.98 64.125 724.569 67.4165 724.569 71.8188V74.9045H758.141V83.9149H724.569V146H712.719ZM777.15 169.698V159.824C781.387 159.824 784.884 159.721 787.641 159.516C790.439 159.351 792.763 158.837 794.615 157.973C796.507 157.15 798.194 155.792 799.675 153.899C801.198 152.007 802.782 149.374 804.427 146H800.478L760.98 74.9045H774.558L808.377 137.175L836.828 74.9045H850.714L814.672 149.95C813.068 153.282 811.401 156.183 809.673 158.652C807.986 161.12 805.847 163.177 803.255 164.823C800.704 166.469 797.351 167.682 793.195 168.464C789.04 169.287 783.691 169.698 777.15 169.698Z" fill="white"/>
</svg>
